<svg width="3989" height="2976" xmlns="http://www.w3.org/2000/svg">
 <g id="Layer_1">
  <title>Layer 1</title>
  <path id="svg_6" d="m1862.47097,72.7879l432.4622,3.04322l461.09618,4.16973l456.00486,40.00043l208.00221,40.00043l124.00132,48.00051l108.00115,72.00077l104.00111,120.00128l52.00055,88.00094l52.00055,180.00192l24.00026,308.00328l16.00017,384.00409l-8.00009,444.00473l-32.00034,460.0049l-40.00043,176.00187l-96.00102,168.00179l-124.00132,116.00124l-124.00132,68.00072l-164.00175,36.00038l-604.00643,60.00064l-664.00707,24.00026l-704.0075,-12.00013l-660.00703,-64.00068l-184.00196,-48.00051l-180.00192,-116.00124l-104.00111,-128.00136l-64.00068,-136.00145l-28.0003,-116.00124l-44.00047,-548.00584l-8.00009,-428.00456l56.0006,-668.00711l52.00055,-172.00183l84.00089,-128.00136l104.00111,-100.00106l196.00209,-88.00094l212.00226,-40.00043l508.00541,-36.00038l582.45734,-11.21299z" opacity="NaN" stroke="#000" fill="#fff"/>
 </g>
</svg>